<svg width="18" height="17" viewBox="0 0 18 17" fill="none" xmlns="http://www.w3.org/2000/svg">
<path d="M6.50217 3.24634L4.92254 0.557925C4.6138 0.03246 3.94381 -0.14707 3.44254 0.199579C2.45626 0.881632 0.986328 2.07818 0.620658 3.35747C0.0530225 5.34335 2.09928 10.0727 4.88131 12.8548C7.66342 15.6369 12.1516 17.4417 14.1375 16.8743C15.4167 16.5088 16.6135 15.0395 17.2958 14.0534C17.6427 13.5521 17.4632 12.882 16.9377 12.5731L14.2492 10.9935C13.7392 10.6938 13.0841 10.8418 12.7524 11.3316L12.0133 12.423C11.6934 12.8953 11.0725 13.0469 10.5946 12.7353C9.82495 12.2335 8.62699 11.3638 7.37908 10.1159C6.13132 8.86814 5.26172 7.67033 4.75985 6.90066C4.44818 6.42268 4.5999 5.80155 5.07249 5.48176L6.16374 4.74335C6.65378 4.41175 6.80192 3.75649 6.50217 3.24634Z" fill="white"/>
</svg>
