<svg width="22" height="23" viewBox="0 0 22 23" fill="none" xmlns="http://www.w3.org/2000/svg">
<path d="M5 17.5H3C2.46957 17.5 1.96086 17.2893 1.58579 16.9142C1.21071 16.5391 1 16.0304 1 15.5V10.5C1 9.96957 1.21071 9.46086 1.58579 9.08579C1.96086 8.71071 2.46957 8.5 3 8.5H19C19.5304 8.5 20.0391 8.71071 20.4142 9.08579C20.7893 9.46086 21 9.96957 21 10.5V15.5C21 16.0304 20.7893 16.5391 20.4142 16.9142C20.0391 17.2893 19.5304 17.5 19 17.5H17" fill="white"/>
<path d="M5 17.5H3C2.46957 17.5 1.96086 17.2893 1.58579 16.9142C1.21071 16.5391 1 16.0304 1 15.5V10.5C1 9.96957 1.21071 9.46086 1.58579 9.08579C1.96086 8.71071 2.46957 8.5 3 8.5H19C19.5304 8.5 20.0391 8.71071 20.4142 9.08579C20.7893 9.46086 21 9.96957 21 10.5V15.5C21 16.0304 20.7893 16.5391 20.4142 16.9142C20.0391 17.2893 19.5304 17.5 19 17.5H17" stroke="white" stroke-width="1.5" stroke-linecap="round" stroke-linejoin="round"/>
<path d="M5 8.5V2.5C5 2.23478 5.10536 1.98043 5.29289 1.79289C5.48043 1.60536 5.73478 1.5 6 1.5H16C16.2652 1.5 16.5196 1.60536 16.7071 1.79289C16.8946 1.98043 17 2.23478 17 2.5V8.5" stroke="white" stroke-width="1.5" stroke-linecap="round" stroke-linejoin="round"/>
<path d="M16 13.5H6C5.44772 13.5 5 13.9477 5 14.5V20.5C5 21.0523 5.44772 21.5 6 21.5H16C16.5523 21.5 17 21.0523 17 20.5V14.5C17 13.9477 16.5523 13.5 16 13.5Z" fill="#40BCC8" stroke="white" stroke-width="1.5" stroke-linecap="round" stroke-linejoin="round"/>
</svg>
